We Were Soldiers is a 2002 American war film that dramatized the Battle of Ia Drang on November 14, 1965 — the first major engagement of the United States Army in the Vietnam War. The film was directed by Randall Wallace and stars Mel Gibson. It is based on the book We Were Soldiers Once… And Young by Lieutenant General (Ret.) Hal Moore and reporter Joseph L. Galloway, both of whom were at the battle.



Format : BDAV
Format/Info : Blu-ray Video
File size : 3.93 GiB
Duration : 2h 18mn
Overall bit rate : 4 059 Kbps
Maximum Overall bit rate : 35.5 Mbps

Video
ID : 4113 (0x1011)
Menu ID : 1 (0x1)
Format : AVC
Format/Info : Advanced Video Codec
Format profile : High@L4.0
Format settings, CABAC : Yes
Format settings, ReFrames : 3 frames
Codec ID : 27
Duration : 2h 18mn
Bit rate mode : Variable
Bit rate : 3 150 Kbps
Maximum bit rate : 20.0 Mbps
Width : 1 920 pixels
Height : 1 080 pixels
Display aspect ratio : 16:9
Frame rate : 23.976 fps
Color space : YUV
Chroma subsampling : 4:2:0
Bit depth : 8 bits
Scan type : Progressive
Bits/(Pixel*Frame) : 0.063
Stream size : 3.14 GiB (80%)
Writing library : x264
Audio
ID : 4352 (0x1100)
Menu ID : 1 (0x1)
Format : AC-3
Format/Info : Audio Coding 3
Mode extension : CM (complete main)
Codec ID : 129
Duration : 2h 18mn
Bit rate mode : Constant
Bit rate : 640 Kbps
Channel(s) : 6 channels
Channel positions : Front: L C R, Side: L R, LFE
Sampling rate : 48.0 KHz
Bit depth : 16 bits
Compression mode : Lossy
Stream size : 634 MiB (16%)
Language : English